<svg id="Layer_1" data-name="Layer 1" xmlns="http://www.w3.org/2000/svg" viewBox="0 0 500 500" width="500" height="500" class="illustration"><defs><style>.cls-1{fill:#0099f5;}.cls-2{fill:#ffd44d;}.cls-3{fill:#24285b;}.cls-4{fill:#f0457d;}.cls-5{opacity:0.09;isolation:isolate;}.cls-6{fill:#f9bb0d;}.cls-7{fill:#db2868;}</style></defs><title>Creative Tools</title><path class="cls-1" d="M418.78,225.25a40.92,40.92,0,0,0-1.59-11.3l53.58,0V45.29a17.16,17.16,0,0,0-17.16-17.16H285l.2,52.85a40.89,40.89,0,1,1,8.11,81,41.76,41.76,0,0,1-7.8-.75l.21,52.7,52.87,0a40.88,40.88,0,1,0,80.16,11.33Z"></path><path class="cls-2" d="M216.43,418.11a40.88,40.88,0,1,1-.3-78.42L215.92,286l-53.55,0a40.89,40.89,0,1,0-78.88,0l-54.26,0V454.76a17.16,17.16,0,0,0,17.16,17.16H216.64Z"></path><path class="cls-3" d="M453.61,399.85a17.16,17.16,0,0,0,17.16-17.16V214l-53.58,0a40.88,40.88,0,1,1-78.57,0l-52.87,0,.2,53.73a40.88,40.88,0,1,0,.3,78.42l.21,53.81Z"></path><path class="cls-4" d="M233.64,203.08a40.84,40.84,0,0,1-1.45,10.79l53.56,0-.21-52.7a41.76,41.76,0,0,0,7.8.75,40.89,40.89,0,1,0-8.11-81L285,28.13H116.21A17.16,17.16,0,0,0,99.05,45.29V213.81l54.26,0a40.88,40.88,0,1,1,80.33-10.75Z"></path><path class="cls-5" d="M453.61,28.08H285L285.15,60H470.77V45.24A17.16,17.16,0,0,0,453.61,28.08Z"></path><path class="cls-6" d="M46.39,471.77h9.15V285.84H29.23V454.62A17.15,17.15,0,0,0,46.39,471.77Z"></path><path class="cls-7" d="M125.36,77.12A17.15,17.15,0,0,1,142.52,60H285.15L285,28.08H116.21A17.16,17.16,0,0,0,99.05,45.24V213.76h26.31Z"></path></svg>